<?xml version="1.0" encoding="utf-8"?>
<svg version="1.1" id="Layer_1" xmlns="http://www.w3.org/2000/svg" xmlns:xlink="http://www.w3.org/1999/xlink" x="0px" y="0px"
	 viewBox="0 0 24 24" style="enable-background:new 0 0 24 24;" xml:space="preserve">
<style type="text/css">
	.st0{fill:none;}
	.st1{fill:#D97979;}
</style>
<path class="st0" d="M0,0h24v24H0V0z M14,21.5c-0.6,0.2-1.3,0.4-2,0.5C12.7,21.9,13.3,21.7,14,21.5z M12,22c-0.7-0.1-1.3-0.3-2-0.5
	C10.7,21.7,11.3,21.9,12,22z"/>
<path d="M8.6,12c-1.1-0.7-2.2-1.3-3.5-1.6C6.3,10.7,7.5,11.3,8.6,12z M19,10.4c-1.3,0.3-2.5,0.9-3.6,1.6
	C16.5,11.3,17.7,10.7,19,10.4z"/>
<path class="st1" d="M15.5,9.6c-0.2-2.8-1.3-5.5-3.4-7.6C9.9,4.1,8.7,6.9,8.5,9.6c1.3,0.7,2.5,1.6,3.5,2.6
	C13,11.2,14.2,10.3,15.5,9.6z M9,12.3c-0.1-0.1-0.3-0.2-0.4-0.3C8.7,12.1,8.9,12.2,9,12.3z M15.4,12c-0.1,0.1-0.3,0.2-0.4,0.3
	C15.1,12.2,15.3,12.1,15.4,12z M12,15.4C9.9,12.2,6.2,10,2,10c0,5.3,3.4,9.8,8,11.5c0.6,0.2,1.3,0.4,2,0.5c0.7-0.1,1.3-0.3,2-0.5
	c4.7-1.7,8-6.2,8-11.5C17.8,10,14.1,12.2,12,15.4z"/>
</svg>
