<?xml version="1.0" encoding="iso-8859-1"?>
<!-- Generator: Adobe Illustrator 19.0.0, SVG Export Plug-In . SVG Version: 6.00 Build 0)  -->
<svg version="1.1" id="Layer_1" xmlns="http://www.w3.org/2000/svg" xmlns:xlink="http://www.w3.org/1999/xlink" x="0px" y="0px"
	 viewBox="0 0 512 512" style="enable-background:new 0 0 512 512;" xml:space="preserve">
<path style="fill:#573024;" d="M339.238,85.709c-2.823-20.171-13.13-40.033-29.023-55.925c-15.892-15.893-35.753-26.2-55.925-29.024
	c-21.799-3.048-42.257,3.158-56.13,17.032c-13.875,13.874-20.083,34.334-17.032,56.13c2.823,20.171,13.13,40.033,29.023,55.926
	c15.893,15.892,35.754,26.199,55.925,29.022c3.644,0.51,7.25,0.761,10.795,0.761c17.659,0,33.782-6.239,45.336-17.793
	C336.082,127.965,342.289,107.506,339.238,85.709z M283.831,56.169c12.022,12.023,18.683,27.077,18.913,39.825l-58.73-58.73
	C256.76,37.495,271.81,44.148,283.831,56.169z M236.536,103.464c-10.046-10.047-16.772-22.699-18.454-34.713
	c-0.199-1.424-0.363-3.15-0.397-5.048l58.616,58.616c-1.9-0.034-3.626-0.199-5.052-0.399
	C259.235,120.236,246.582,113.51,236.536,103.464z"/>
<path style="fill:#83432D;" d="M257.049,117.72c-7.315-3.266-14.398-8.142-20.513-14.256
	c-10.046-10.047-16.772-22.699-18.454-34.713c-0.199-1.424-0.363-3.15-0.397-5.048l39.364,39.364V50.298l-13.035-13.035
	c4.162,0.076,8.568,0.848,13.035,2.256V1.212c-0.919-0.16-1.837-0.321-2.759-0.45c-21.799-3.048-42.257,3.158-56.13,17.032
	c-13.875,13.873-20.083,34.333-17.032,56.129c2.823,20.171,13.13,40.033,29.023,55.926c13.512,13.512,29.896,22.966,46.897,27.236
	L257.049,117.72L257.049,117.72z"/>
<path style="fill:#A1A1A1;" d="M425.24,215.895h-16.701v-21.678c0-6.869-5.568-12.438-12.438-12.438H97.953
	c-6.869,0-12.438,5.568-12.438,12.438v102.7c0,89.2,72.311,161.511,161.511,161.511l0,0c58.339,0,109.449-30.934,137.835-77.291
	h40.379c45.558,0,82.622-37.064,82.622-82.622C507.862,252.958,470.797,215.895,425.24,215.895z M425.24,343.825h-23.629
	c4.499-14.846,6.928-30.592,6.928-46.907v-43.71h16.701c24.983,0,45.309,20.326,45.309,45.308
	C470.549,323.499,450.223,343.825,425.24,343.825z"/>
<path style="fill:#D6D6D6;" d="M247.027,458.428L247.027,458.428c-89.2,0-161.511-72.311-161.511-161.511v-102.7
	c0-6.869,5.568-12.438,12.438-12.438h149.074V458.428z"/>
<path style="fill:#625F69;" d="M473.746,423.836H22.794c-10.303,0-18.656,8.353-18.656,18.656c0,10.303,8.353,18.656,18.656,18.656
	h51.002l6.506,12.26C92.901,497.155,117.585,512,144.466,512h103.804h103.804c26.881,0,51.565-14.846,64.164-38.592l6.505-12.26
	h51.002c10.303,0,18.656-8.353,18.656-18.656C492.403,432.189,484.05,423.836,473.746,423.836z"/>
<path style="fill:#827E8C;" d="M248.271,461.149v-37.313H22.794c-10.303,0-18.656,8.353-18.656,18.656
	c0,10.303,8.353,18.656,18.656,18.656h51.002l6.506,12.26C92.901,497.155,117.585,512,144.466,512h103.804V461.149z"/>
<g>
</g>
<g>
</g>
<g>
</g>
<g>
</g>
<g>
</g>
<g>
</g>
<g>
</g>
<g>
</g>
<g>
</g>
<g>
</g>
<g>
</g>
<g>
</g>
<g>
</g>
<g>
</g>
<g>
</g>
</svg>
