<?xml version="1.0" encoding="iso-8859-1"?>
<!-- Generator: Adobe Illustrator 19.0.0, SVG Export Plug-In . SVG Version: 6.00 Build 0)  -->
<svg version="1.1" id="Layer_1" xmlns="http://www.w3.org/2000/svg" xmlns:xlink="http://www.w3.org/1999/xlink" x="0px" y="0px"
	 viewBox="0 0 512.001 512.001" style="enable-background:new 0 0 512.001 512.001;" xml:space="preserve">
<path style="fill:#B3404A;" d="M256.611,471.389c-0.312,0-0.619-0.01-0.934-0.024h-0.152c-5.264,0-6.679,0-35.872-22.749
	c-17.103-13.328-38.079-30.248-59.065-47.647c-32.592-27.02-91.367-76.903-118.811-107.401
	c-56.191-62.458-55.636-152.472,1.29-209.378c28.092-28.101,65.507-43.577,105.346-43.577c39.838,0,77.254,15.477,105.357,43.58
	l2.232,2.232l2.239-2.241c58.088-58.088,152.61-58.088,210.708-0.006c56.905,56.932,57.459,146.942,1.293,209.377
	c-13,14.449-34.507,34.855-63.922,60.659c-5.855,5.136-14.765,4.553-19.9-1.302c-5.136-5.855-4.553-14.765,1.302-19.9
	c28.181-24.72,49.466-44.887,61.553-58.319c45.968-51.096,45.852-124.427-0.269-170.571
	c-47.097-47.086-123.728-47.086-170.815,0.003l-12.205,12.215c-2.644,2.645-6.23,4.133-9.971,4.135c-0.001,0-0.003,0-0.004,0
	c-3.738,0-7.324-1.485-9.97-4.129l-12.211-12.207c-22.777-22.777-53.112-35.321-85.416-35.321S85.779,81.361,63.01,104.135
	c-46.14,46.124-46.254,119.454-0.268,170.571c40.839,45.384,164.004,144.628,193.106,165.984
	c7.876-5.682,23.564-17.654,47.718-37.11c6.067-4.886,14.944-3.93,19.829,2.135c4.885,6.065,3.93,14.942-2.135,19.829
	C268.122,468.344,261.909,471.389,256.611,471.389z"/>
<path style="fill:#F4B2B0;" d="M255.996,388.857c-39.206-32.207-117.833-98.527-146.743-130.655
	c-15.023-16.698-23.25-37.388-23.165-58.256c0.083-20.261,8.078-39.364,22.509-53.793c14.839-14.842,34.607-23.013,55.67-23.013
	c21.065,0,40.836,8.172,55.675,23.009l36.079,36.071l36.064-36.095c14.821-14.821,34.59-22.989,55.654-22.989
	c21.067,0,40.84,8.169,55.678,23.003c14.423,14.43,22.419,33.543,22.501,53.807c0.086,20.865-8.14,41.551-23.159,58.248
	C373.783,290.396,294.013,357.631,255.996,388.857z"/>
<path style="fill:#B3404A;" d="M255.996,402.958c-3.174,0-6.35-1.068-8.952-3.205c-18.816-15.456-114.392-94.465-148.275-132.118
	c-17.372-19.31-26.884-43.369-26.784-67.746c0.097-24.006,9.56-46.63,26.643-63.708c17.498-17.502,40.809-27.142,65.64-27.142
	c24.832,0,48.145,9.639,65.647,27.139l26.102,26.097l26.094-26.115c17.492-17.492,40.799-27.123,65.631-27.123
	c24.832,0,48.146,9.636,65.648,27.133c17.077,17.086,26.535,39.714,26.633,63.72c0.1,24.375-9.41,48.431-26.778,67.737
	c-34.614,38.468-136.762,122.655-148.297,132.127C262.345,401.889,259.17,402.958,255.996,402.958z M164.266,137.242
	c-17.294,0-33.524,6.705-45.697,18.882c-11.786,11.782-18.313,27.365-18.38,43.879c-0.071,17.358,6.87,34.676,19.547,48.767
	c23.783,26.428,86.265,80.455,136.26,121.81c49.998-41.351,112.487-95.378,136.28-121.818
	c12.672-14.085,19.611-31.402,19.541-48.757c-0.068-16.52-6.593-32.108-18.373-43.895c-12.17-12.167-28.404-18.871-45.704-18.871
	c-17.299,0-33.521,6.697-45.684,18.858l-36.06,36.091c-2.644,2.646-6.232,4.133-9.971,4.135c-0.001,0-0.003,0-0.004,0
	c-3.74,0-7.326-1.485-9.97-4.129l-36.079-36.071C197.796,143.948,181.565,137.242,164.266,137.242z"/>
<g>
</g>
<g>
</g>
<g>
</g>
<g>
</g>
<g>
</g>
<g>
</g>
<g>
</g>
<g>
</g>
<g>
</g>
<g>
</g>
<g>
</g>
<g>
</g>
<g>
</g>
<g>
</g>
<g>
</g>
</svg>
